<svg width="25" height="25" viewBox="0 0 25 25" fill="none" xmlns="http://www.w3.org/2000/svg">
<g id="figma" clip-path="url(#clip0_867_223)">
<path id="Vector" d="M5.16211 6.42188C5.16211 5.49362 5.53086 4.60338 6.18724 3.947C6.84361 3.29062 7.73385 2.92188 8.66211 2.92188H12.1621V9.92188H8.66211C7.73385 9.92188 6.84361 9.55313 6.18724 8.89675C5.53086 8.24037 5.16211 7.35013 5.16211 6.42188Z" stroke="#F1F5FB" stroke-width="2" stroke-linecap="round" stroke-linejoin="round"/>
<path id="Vector_2" d="M12.1621 2.92188H15.6621C16.1217 2.92187 16.5769 3.01241 17.0015 3.1883C17.4261 3.36419 17.812 3.622 18.137 3.947C18.462 4.27201 18.7198 4.65784 18.8957 5.08248C19.0716 5.50712 19.1621 5.96225 19.1621 6.42188C19.1621 6.8815 19.0716 7.33663 18.8957 7.76127C18.7198 8.18591 18.462 8.57174 18.137 8.89675C17.812 9.22175 17.4261 9.47956 17.0015 9.65545C16.5769 9.83135 16.1217 9.92188 15.6621 9.92188H12.1621V2.92188Z" stroke="#F1F5FB" stroke-width="2" stroke-linecap="round" stroke-linejoin="round"/>
<path id="Vector_3" d="M12.1621 13.4219C12.1621 12.9622 12.2526 12.5071 12.4285 12.0825C12.6044 11.6578 12.8622 11.272 13.1872 10.947C13.5122 10.622 13.8981 10.3642 14.3227 10.1883C14.7474 10.0124 15.2025 9.92188 15.6621 9.92188C16.1217 9.92188 16.5769 10.0124 17.0015 10.1883C17.4261 10.3642 17.812 10.622 18.137 10.947C18.462 11.272 18.7198 11.6578 18.8957 12.0825C19.0716 12.5071 19.1621 12.9622 19.1621 13.4219C19.1621 13.8815 19.0716 14.3366 18.8957 14.7613C18.7198 15.1859 18.462 15.5717 18.137 15.8967C17.812 16.2218 17.4261 16.4796 17.0015 16.6555C16.5769 16.8313 16.1217 16.9219 15.6621 16.9219C15.2025 16.9219 14.7474 16.8313 14.3227 16.6555C13.8981 16.4796 13.5122 16.2218 13.1872 15.8967C12.8622 15.5717 12.6044 15.1859 12.4285 14.7613C12.2526 14.3366 12.1621 13.8815 12.1621 13.4219Z" stroke="#F1F5FB" stroke-width="2" stroke-linecap="round" stroke-linejoin="round"/>
<path id="Vector_4" d="M5.16211 20.4219C5.16211 19.4936 5.53086 18.6034 6.18724 17.947C6.84361 17.2906 7.73385 16.9219 8.66211 16.9219H12.1621V20.4219C12.1621 21.3501 11.7934 22.2404 11.137 22.8967C10.4806 23.5531 9.59037 23.9219 8.66211 23.9219C7.73385 23.9219 6.84361 23.5531 6.18724 22.8967C5.53086 22.2404 5.16211 21.3501 5.16211 20.4219Z" stroke="#F1F5FB" stroke-width="2" stroke-linecap="round" stroke-linejoin="round"/>
<path id="Vector_5" d="M5.16211 13.4219C5.16211 12.4936 5.53086 11.6034 6.18724 10.947C6.84361 10.2906 7.73385 9.92188 8.66211 9.92188H12.1621V16.9219H8.66211C7.73385 16.9219 6.84361 16.5531 6.18724 15.8967C5.53086 15.2404 5.16211 14.3501 5.16211 13.4219Z" stroke="#F1F5FB" stroke-width="2" stroke-linecap="round" stroke-linejoin="round"/>
</g>
<defs>
<clipPath id="clip0_867_223">
<rect width="24" height="24" fill="white" transform="translate(0.162109 0.921875)"/>
</clipPath>
</defs>
</svg>
