<svg width="25" height="25" viewBox="0 0 25 25" fill="none" xmlns="http://www.w3.org/2000/svg">
<g id="github" clip-path="url(#clip0_867_229)">
<path id="Vector" d="M9.86133 19.9213C4.86133 21.4213 4.86133 17.4213 2.86133 16.9213M16.8613 22.9213V19.0513C16.8988 18.5745 16.8344 18.0951 16.6723 17.6451C16.5103 17.1951 16.2543 16.7847 15.9213 16.4413C19.0613 16.0913 22.3613 14.9013 22.3613 9.44132C22.3611 8.04515 21.824 6.70252 20.8613 5.69132C21.3172 4.46983 21.285 3.11967 20.7713 1.92132C20.7713 1.92132 19.5913 1.57132 16.8613 3.40132C14.5693 2.78015 12.1533 2.78015 9.86133 3.40132C7.13133 1.57132 5.95133 1.92132 5.95133 1.92132C5.4377 3.11967 5.40547 4.46983 5.86133 5.69132C4.89146 6.71002 4.35385 8.06479 4.36133 9.47132C4.36133 14.8913 7.66133 16.0813 10.8013 16.4713C10.4723 16.8113 10.2186 17.2167 10.0566 17.6612C9.89468 18.1058 9.82814 18.5794 9.86133 19.0513V22.9213" stroke="#F1F5FB" stroke-width="2" stroke-linecap="round" stroke-linejoin="round"/>
</g>
<defs>
<clipPath id="clip0_867_229">
<rect width="24" height="24" fill="white" transform="translate(0.861328 0.921875)"/>
</clipPath>
</defs>
</svg>
