<svg width="25" height="25" viewBox="0 0 25 25" fill="none" xmlns="http://www.w3.org/2000/svg">
<g id="settings" clip-path="url(#clip0_867_220)">
<path id="Vector" d="M12.4629 15.9219C14.1197 15.9219 15.4629 14.5787 15.4629 12.9219C15.4629 11.265 14.1197 9.92188 12.4629 9.92188C10.806 9.92188 9.46289 11.265 9.46289 12.9219C9.46289 14.5787 10.806 15.9219 12.4629 15.9219Z" stroke="#F1F5FB" stroke-width="2" stroke-linecap="round" stroke-linejoin="round"/>
<path id="Vector_2" d="M19.8629 15.9219C19.7298 16.2235 19.6901 16.5581 19.7489 16.8825C19.8077 17.2069 19.9624 17.5062 20.1929 17.7419L20.2529 17.8019C20.4388 17.9876 20.5864 18.2082 20.687 18.451C20.7877 18.6938 20.8395 18.954 20.8395 19.2169C20.8395 19.4797 20.7877 19.74 20.687 19.9828C20.5864 20.2256 20.4388 20.4461 20.2529 20.6319C20.0671 20.8178 19.8466 20.9653 19.6038 21.066C19.361 21.1666 19.1007 21.2184 18.8379 21.2184C18.5751 21.2184 18.3148 21.1666 18.072 21.066C17.8292 20.9653 17.6086 20.8178 17.4229 20.6319L17.3629 20.5719C17.1272 20.3413 16.8279 20.1867 16.5035 20.1279C16.1791 20.0691 15.8445 20.1088 15.5429 20.2419C15.2471 20.3686 14.9949 20.5791 14.8172 20.8474C14.6395 21.1157 14.5442 21.4301 14.5429 21.7519V21.9219C14.5429 22.4523 14.3322 22.961 13.9571 23.3361C13.582 23.7112 13.0733 23.9219 12.5429 23.9219C12.0125 23.9219 11.5038 23.7112 11.1287 23.3361C10.7536 22.961 10.5429 22.4523 10.5429 21.9219V21.8319C10.5351 21.5009 10.428 21.1799 10.2354 20.9106C10.0428 20.6413 9.77363 20.4362 9.46289 20.3219C9.16127 20.1888 8.8267 20.1491 8.5023 20.2079C8.17791 20.2667 7.87857 20.4213 7.64289 20.6519L7.58289 20.7119C7.39714 20.8978 7.17657 21.0453 6.93377 21.146C6.69097 21.2466 6.43072 21.2984 6.16789 21.2984C5.90506 21.2984 5.64481 21.2466 5.40201 21.146C5.15921 21.0453 4.93864 20.8978 4.75289 20.7119C4.56694 20.5261 4.41942 20.3056 4.31877 20.0628C4.21812 19.82 4.16632 19.5597 4.16632 19.2969C4.16632 19.034 4.21812 18.7738 4.31877 18.531C4.41942 18.2882 4.56694 18.0676 4.75289 17.8819L4.81289 17.8219C5.04343 17.5862 5.19808 17.2869 5.2569 16.9625C5.31571 16.6381 5.27601 16.3035 5.14289 16.0019C5.01613 15.7061 4.80565 15.4539 4.53736 15.2762C4.26907 15.0985 3.95468 15.0032 3.63289 15.0019H3.46289C2.93246 15.0019 2.42375 14.7912 2.04868 14.4161C1.6736 14.041 1.46289 13.5323 1.46289 13.0019C1.46289 12.4714 1.6736 11.9627 2.04868 11.5877C2.42375 11.2126 2.93246 11.0019 3.46289 11.0019H3.55289C3.88388 10.9941 4.2049 10.887 4.47419 10.6944C4.74348 10.5018 4.94861 10.2326 5.06289 9.92188C5.19601 9.62026 5.23571 9.28568 5.1769 8.96129C5.11808 8.63689 4.96343 8.33755 4.73289 8.10187L4.67289 8.04187C4.48694 7.85613 4.33942 7.63555 4.23877 7.39276C4.13812 7.14996 4.08632 6.88971 4.08632 6.62687C4.08632 6.36404 4.13812 6.10379 4.23877 5.86099C4.33942 5.6182 4.48694 5.39762 4.67289 5.21187C4.85864 5.02592 5.07921 4.8784 5.32201 4.77776C5.56481 4.67711 5.82506 4.6253 6.08789 4.6253C6.35072 4.6253 6.61098 4.67711 6.85377 4.77776C7.09657 4.8784 7.31714 5.02592 7.50289 5.21187L7.56289 5.27187C7.79857 5.50241 8.09791 5.65706 8.4223 5.71588C8.7467 5.7747 9.08127 5.73499 9.38289 5.60187H9.46289C9.75866 5.47511 10.0109 5.26463 10.1886 4.99634C10.3663 4.72805 10.4616 4.41366 10.4629 4.09188V3.92188C10.4629 3.39144 10.6736 2.88273 11.0487 2.50766C11.4238 2.13259 11.9325 1.92188 12.4629 1.92188C12.9933 1.92188 13.502 2.13259 13.8771 2.50766C14.2522 2.88273 14.4629 3.39144 14.4629 3.92188V4.01187C14.4642 4.33366 14.5595 4.64805 14.7372 4.91634C14.9149 5.18463 15.1671 5.39511 15.4629 5.52187C15.7645 5.65499 16.0991 5.6947 16.4235 5.63588C16.7479 5.57706 17.0472 5.42241 17.2829 5.19187L17.3429 5.13188C17.5286 4.94592 17.7492 4.7984 17.992 4.69776C18.2348 4.59711 18.4951 4.5453 18.7579 4.5453C19.0207 4.5453 19.281 4.59711 19.5238 4.69776C19.7666 4.7984 19.9871 4.94592 20.1729 5.13188C20.3588 5.31762 20.5064 5.5382 20.607 5.78099C20.7077 6.02379 20.7595 6.28404 20.7595 6.54688C20.7595 6.80971 20.7077 7.06996 20.607 7.31276C20.5064 7.55555 20.3588 7.77613 20.1729 7.96187L20.1129 8.02187C19.8824 8.25755 19.7277 8.55689 19.6689 8.88129C19.6101 9.20568 19.6498 9.54026 19.7829 9.84188V9.92188C19.9097 10.2176 20.1201 10.4699 20.3884 10.6476C20.6567 10.8252 20.9711 10.9206 21.2929 10.9219H21.4629C21.9933 10.9219 22.502 11.1326 22.8771 11.5077C23.2522 11.8827 23.4629 12.3914 23.4629 12.9219C23.4629 13.4523 23.2522 13.961 22.8771 14.3361C22.502 14.7112 21.9933 14.9219 21.4629 14.9219H21.3729C21.0511 14.9232 20.7367 15.0185 20.4684 15.1962C20.2001 15.3739 19.9897 15.6261 19.8629 15.9219Z" stroke="#F1F5FB" stroke-width="2" stroke-linecap="round" stroke-linejoin="round"/>
</g>
<defs>
<clipPath id="clip0_867_220">
<rect width="24" height="24" fill="white" transform="translate(0.462891 0.921875)"/>
</clipPath>
</defs>
</svg>
